<svg width="79" height="100" viewBox="0 0 79 100" fill="none" xmlns="http://www.w3.org/2000/svg">
<mask id="path-1-inside-1_5_3297" fill="white">
<path d="M0.898438 0.57666H78.3984V99.5767H0.898438V0.57666Z"/>
</mask>
<path d="M1.89844 99.5767V0.57666H-0.101562V99.5767H1.89844Z" fill="#1D1D1B" mask="url(#path-1-inside-1_5_3297)"/>
<g clip-path="url(#clip0_5_3297)">
<path d="M78.1765 48.9797C78.1305 48.9617 78.1115 48.9577 78.1085 48.9607C78.1055 48.9637 78.1535 48.9957 78.1535 48.9917C78.2176 49.0235 78.2845 49.0489 78.3535 49.0677C78.3688 49.0689 78.3838 49.0716 78.3985 49.0757C78.2945 49.0317 78.2225 48.9977 78.1765 48.9797Z" fill="#1D1D1B"/>
<path d="M74.0168 48.3735L73.4238 48.3335L73.9448 48.3805L74.0168 48.3735Z" fill="#1D1D1B"/>
<path d="M72.3346 48.1565L72.6416 48.1455C71.8356 48.0365 70.7866 47.8985 70.2256 47.7725C70.8857 47.9239 71.5533 48.0411 72.2256 48.1235L72.3346 48.1565Z" fill="#1D1D1B"/>
<path d="M66.8529 47.2815L66.7729 47.2565C66.6939 47.2405 66.5859 47.2145 66.4029 47.1685C66.5159 47.2235 65.9769 47.0965 66.8529 47.2815Z" fill="#1D1D1B"/>
<path d="M66.7965 47.2597C66.5495 47.1817 67.1805 47.3427 66.7965 47.2597V47.2597Z" fill="#1D1D1B"/>
<path d="M64.7373 46.7977L65.2373 46.9127C65.1373 46.8677 64.6963 46.7407 64.8643 46.7757C64.3563 46.6417 64.4563 46.6847 64.7373 46.7977Z" fill="#1D1D1B"/>
<path d="M64.1318 46.7017L64.3918 46.7697C64.3086 46.7353 64.2212 46.7124 64.1318 46.7017Z" fill="#1D1D1B"/>
<path d="M65.0393 46.9107C64.8543 46.8667 64.6693 46.8247 64.4863 46.7747C64.5608 46.8239 64.6493 46.8474 64.7383 46.8417C64.6873 46.8497 64.8013 46.8607 65.0393 46.9107Z" fill="#1D1D1B"/>
<path d="M65.6837 47.1074C65.897 47.1786 66.1184 47.2223 66.3427 47.2374C66.3097 47.2164 66.0347 47.1454 65.5537 47.0234C65.8317 47.1104 66.1927 47.2134 65.6837 47.1074Z" fill="#1D1D1B"/>
<path d="M70.74 47.9306C70.571 47.9146 70.001 47.7766 70.021 47.8026L70.402 47.8956L70.74 47.9306Z" fill="#1D1D1B"/>
<path d="M61.1971 45.5527C61.1621 45.5527 61.3311 45.6687 61.3591 45.6997L61.7091 45.8457C61.5306 45.7624 61.3593 45.6644 61.1971 45.5527Z" fill="#1D1D1B"/>
<path d="M61.2865 45.6927C61.1138 45.6167 60.9418 45.538 60.7705 45.4567C61.2195 45.6957 61.3075 45.7217 61.2865 45.6927Z" fill="#1D1D1B"/>
<path d="M65.0051 46.9687C64.6391 46.8867 64.2761 46.7977 63.9141 46.6977L64.0861 46.7537C64.3921 46.8297 64.6981 46.9037 65.0051 46.9687Z" fill="#1D1D1B"/>
<path d="M59.2602 44.4897C59.0962 44.3947 58.9412 44.2897 58.7832 44.1837L58.9832 44.3257C59.0742 44.3847 59.1692 44.4357 59.2602 44.4897Z" fill="#1D1D1B"/>
<path d="M57.6751 43.2807C57.8561 43.4307 57.4911 43.0147 57.6751 43.1807C57.5421 43.0437 57.4251 42.9097 57.3091 42.7907C57.1931 42.6717 57.0921 42.5517 56.9961 42.4387C57.0961 42.5617 57.1961 42.6857 57.3051 42.8267C57.4141 42.9677 57.5301 43.1177 57.6751 43.2807Z" fill="#1D1D1B"/>
<path d="M56.5723 42.0127C56.6613 42.1427 56.7723 42.2647 56.8843 42.4027C56.7833 42.2687 56.6733 42.1447 56.5723 42.0127Z" fill="#1D1D1B"/>
<path d="M59.6984 44.9047C59.5931 44.7995 59.4794 44.7032 59.3584 44.6167C59.4094 44.6727 59.4584 44.7277 59.5144 44.7797L59.6984 44.9047Z" fill="#1D1D1B"/>
<path d="M59.483 44.7787L59.477 44.7727C59.31 44.6567 59.191 44.5647 59.123 44.5137C59.185 44.5597 59.294 44.6457 59.483 44.7787Z" fill="#1D1D1B"/>
<path d="M59.7266 44.9155C59.7389 44.9298 59.7548 44.9405 59.7726 44.9465L59.7266 44.9155Z" fill="#1D1D1B"/>
<path d="M62.2566 46.1629L61.7286 45.9759C61.6046 45.9299 61.5896 45.9479 61.8936 46.0999C62.1266 46.1689 61.7786 45.9969 62.2566 46.1629Z" fill="#1D1D1B"/>
<path d="M60.6717 45.4616C60.4797 45.3616 60.2847 45.2696 60.0977 45.1616C60.2647 45.2726 60.4397 45.3726 60.6147 45.4746C60.6087 45.4586 60.5177 45.3906 60.6717 45.4616Z" fill="#1D1D1B"/>
<path d="M60.004 45.1475L59.816 45.0265L59.748 45.0005C59.83 45.0535 59.919 45.0985 60.004 45.1475Z" fill="#1D1D1B"/>
<path d="M57.1991 42.8817C57.1101 42.7877 57.0241 42.6817 56.9331 42.5727C56.8421 42.4637 56.7581 42.3367 56.6621 42.2077C56.8511 42.4964 57.0585 42.7727 57.2831 43.0347C57.3251 43.0627 57.4381 43.1587 57.1991 42.8817Z" fill="#1D1D1B"/>
<path d="M58.251 43.8866C58.237 43.8756 58.22 43.8606 58.208 43.8496C58.229 43.8806 58.256 43.8996 58.251 43.8866Z" fill="#1D1D1B"/>
<path d="M54.8779 39.1885L54.8889 39.2385L54.9009 39.2475L54.8779 39.1885Z" fill="#1D1D1B"/>
<path d="M57.4057 43.1257C57.4713 43.2103 57.5428 43.2902 57.6197 43.3647C57.6827 43.4277 57.7387 43.4787 57.7937 43.5277C57.6597 43.3897 57.5137 43.2457 57.3737 43.0767C57.3557 43.0637 57.3507 43.0637 57.4057 43.1257Z" fill="#1D1D1B"/>
<path d="M56.198 41.6246C56.142 41.5046 56.023 41.2656 55.998 41.2246C56.047 41.3506 56.123 41.4816 56.198 41.6246Z" fill="#1D1D1B"/>
<path d="M58.1417 43.7788L58.1707 43.8038C58.1157 43.7388 58.1207 43.7498 58.1417 43.7788Z" fill="#1D1D1B"/>
<path d="M58.1253 43.7727C58.0253 43.6847 57.9433 43.6207 57.8643 43.5527C57.9773 43.6617 58.0863 43.7577 58.1793 43.8417C58.1593 43.8127 58.1393 43.7917 58.1253 43.7727Z" fill="#1D1D1B"/>
<path d="M55.3869 40.3209C55.4209 40.3949 55.4589 40.4679 55.4969 40.5399C55.4349 40.4139 55.3969 40.3009 55.3469 40.1789C55.2969 40.0569 55.2519 39.9219 55.1979 39.7449C55.1332 39.5824 55.0545 39.4258 54.9629 39.2769C55.1009 39.6569 55.2629 40.0269 55.4279 40.3939L55.3869 40.3209Z" fill="#1D1D1B"/>
<path d="M55.8646 41.2844C56.0158 41.5596 56.1947 41.8186 56.3986 42.0574C56.2376 41.8154 56.1696 41.7104 56.1546 41.6774C56.1396 41.6444 56.1686 41.6874 56.2046 41.7384C56.2304 41.7771 56.2606 41.8126 56.2946 41.8444C56.2598 41.7611 56.2177 41.6812 56.1686 41.6054C56.2286 41.7054 56.2896 41.7914 56.3476 41.8774C56.4056 41.9634 56.4596 42.0474 56.5156 42.1254C56.4576 42.0384 56.4076 41.9504 56.3546 41.8654C56.3016 41.7804 56.2546 41.6974 56.2086 41.6134C56.213 41.6212 56.217 41.6292 56.2206 41.6374C56.2416 41.6834 56.2466 41.6994 56.2206 41.6494L56.2076 41.6294C56.1924 41.6193 56.1789 41.6068 56.1676 41.5924C56.0036 41.2994 56.1496 41.5414 56.2076 41.6294C56.2076 41.6294 56.2176 41.6374 56.2206 41.6374C56.1206 41.4734 56.0146 41.3114 55.9206 41.1384C55.8736 41.0544 55.8206 40.9714 55.7786 40.8854L55.6436 40.6274C55.7976 40.9602 55.9726 41.2818 56.1676 41.5924C56.0256 41.4554 55.7296 40.9434 55.8646 41.2844Z" fill="#1D1D1B"/>
<path d="M61.1241 45.9097C61.0941 45.8897 61.0971 45.8877 61.0951 45.8837C61.0251 45.8527 60.9981 45.8427 61.1241 45.9097Z" fill="#1D1D1B"/>
<path d="M60.1223 45.2757L60.0993 45.2497C60.0813 45.2417 60.0933 45.2527 60.1223 45.2757Z" fill="#1D1D1B"/>
<path d="M61.1625 45.8477C61.1365 45.8377 61.1105 45.8267 61.0855 45.8157C60.8022 45.6627 60.5304 45.4893 60.2725 45.2967C60.4015 45.4267 60.5428 45.5439 60.6945 45.6467C60.8317 45.6987 60.9653 45.7598 61.0945 45.8297C61.3065 45.9467 61.0845 45.8487 61.0945 45.8657C61.2405 45.9297 61.6275 46.0897 61.1625 45.8477Z" fill="#1D1D1B"/>
<path d="M57.8109 43.7445C57.8425 43.7748 57.8759 43.8032 57.9109 43.8295C57.9509 43.8575 57.9499 43.8405 57.9799 43.8585C57.8619 43.7475 57.7409 43.6395 57.6289 43.5215L57.4579 43.3475C57.4019 43.2885 57.3499 43.2265 57.2949 43.1665C57.3449 43.2325 57.3949 43.3015 57.4429 43.3665L57.5999 43.5605V43.5265L57.7209 43.6575L57.8109 43.7445Z" fill="#1D1D1B"/>
<path d="M54.9365 39.1587C54.8495 38.9927 54.7685 38.8227 54.6865 38.6517C54.7415 38.7857 54.7865 38.9217 54.8485 39.0517L54.9365 39.1587Z" fill="#1D1D1B"/>
<path d="M54.4226 37.8155L54.3076 37.5005L54.3726 37.7815L54.4226 37.8155Z" fill="#1D1D1B"/>
<path d="M48.9156 36.0255C48.8646 36.1805 48.8366 36.2805 48.8646 36.2615L48.9356 36.1465C48.9956 35.8605 49.0466 35.6465 49.0976 35.4575L48.9156 36.0255Z" fill="#1D1D1B"/>
<path d="M51.9919 22.9185C51.9803 23.2217 51.9967 23.5253 52.0409 23.8255C52.0279 23.4615 52.0109 23.1685 51.9919 22.9185Z" fill="#1D1D1B"/>
<path d="M40.1912 51.9017C40.3562 51.9587 40.4292 51.9777 40.4282 51.9667C40.2582 51.9087 40.1602 51.8747 40.1912 51.9017Z" fill="#1D1D1B"/>
<path d="M51.8955 21.8717V22.0647C51.9225 22.3297 51.9515 22.5957 51.9745 22.9197C51.9713 22.569 51.9449 22.2189 51.8955 21.8717Z" fill="#1D1D1B"/>
<path d="M74.1523 49.7937C74.2413 49.7847 74.3893 49.7647 74.6433 49.7257C74.5283 49.7437 74.3333 49.7687 74.1523 49.7937Z" fill="#1D1D1B"/>
<path d="M53.1299 32.4678C53.1399 32.5098 53.1739 32.7348 53.1299 32.4678V32.4678Z" fill="#1D1D1B"/>
<path d="M53.1806 33.8725C53.1749 33.8367 53.1616 33.8026 53.1416 33.7725C53.1596 33.8036 53.1728 33.8373 53.1806 33.8725Z" fill="#1D1D1B"/>
<path d="M53.1777 32.8806C53.1667 32.7806 53.1527 32.6636 53.1357 32.5366C53.1407 32.5926 53.1537 32.6966 53.1777 32.8806Z" fill="#1D1D1B"/>
<path d="M53.1982 32.8397L53.2312 33.0737C53.2442 33.1057 53.2432 33.0757 53.1982 32.8397Z" fill="#1D1D1B"/>
<path d="M53.1234 32.4477C53.1114 32.3697 53.0944 32.2587 53.0664 32.0747C53.0894 32.2277 53.1084 32.3747 53.1264 32.5087C53.1204 32.4567 53.1194 32.4347 53.1234 32.4477Z" fill="#1D1D1B"/>
<path d="M54.4043 60.1177C54.4043 60.1077 54.4163 60.0937 54.4253 60.0747L54.4043 60.1177Z" fill="#1D1D1B"/>
<path d="M76.6833 49.3697C77.0983 49.2827 76.7243 49.2697 76.3233 49.2627C76.906 49.2013 77.5026 49.1403 78.1133 49.0797C64.6523 47.7327 58.5263 46.5367 55.3343 40.7097C55.3663 40.7657 55.3973 40.8247 55.4343 40.8757L55.4453 40.8427C55.2643 40.5257 55.1313 40.2967 55.2453 40.5427C55.0953 40.2613 54.953 39.9697 54.8183 39.6677C54.9553 39.9187 55.0183 39.9477 55.0263 39.8487C55.0169 39.6424 54.9833 39.438 54.9263 39.2397C54.9133 39.2337 54.9013 39.2327 54.8603 39.1587C54.8393 39.1217 54.8093 39.0677 54.7673 38.9847C54.7253 38.9017 54.6813 38.7847 54.6133 38.6407C54.6563 38.8637 55.1133 39.9887 54.8573 39.4997C54.7663 39.2997 54.7053 39.1627 54.6573 39.0587C54.6264 38.9822 54.5997 38.9041 54.5773 38.8247C54.5423 38.7087 54.5333 38.6427 54.4713 38.4437C54.5043 38.6187 54.3903 38.3677 54.2713 38.0957C54.2075 37.9283 54.1289 37.767 54.0363 37.6137C53.523 35.9528 53.127 34.258 52.8513 32.5417C52.8633 32.5727 52.8703 32.5677 52.8663 32.5017L52.7793 32.0267C52.7573 31.5827 52.9973 32.9137 52.9213 32.3077C53.0643 32.9407 53.2453 33.6457 53.4083 34.5407L53.3723 34.7207C53.3443 34.4376 53.2932 34.1573 53.2193 33.8827C53.2693 34.0667 53.3193 34.4117 53.3773 34.7617C53.4175 35.0676 53.4951 35.3675 53.6083 35.6547C53.5703 35.4447 53.5423 35.2337 53.5083 35.0237C53.6863 35.6517 53.9553 36.4137 54.1703 37.1897C54.1373 36.8217 54.1033 37.0147 54.0323 36.4447C54.0393 36.5697 54.0103 36.5077 53.9633 36.3577C53.9163 36.2077 53.8503 35.9677 53.7963 35.7357C53.6763 35.2727 53.5883 34.8427 53.6203 35.2407C53.5981 34.9667 53.5603 34.6943 53.5073 34.4247C53.4463 34.1109 53.4019 33.7941 53.3743 33.4757C53.3573 33.5017 53.3743 33.7497 53.2673 33.0837C53.2553 33.0547 53.2343 32.9837 53.2203 32.9407C53.2203 32.9197 53.2203 32.9127 53.2143 32.8957V32.9327C53.2063 32.9047 53.2033 32.9017 53.2143 32.9467C53.2296 33.0607 53.2376 33.1756 53.2383 33.2907C53.1561 33.0088 53.0893 32.7227 53.0383 32.4337C52.9713 32.0837 52.9043 31.7337 52.8643 31.5507C52.8143 31.1507 52.9163 31.7137 52.9083 31.4937L52.7833 30.9617C52.8283 30.9017 52.7203 29.8957 52.8833 30.8277L52.7663 29.9857C52.7283 29.4857 52.6543 28.8017 52.5803 28.3857C52.5443 27.9857 52.4043 27.3857 52.4853 27.7277L52.3053 26.4047L52.3173 26.3917C52.1843 25.0817 51.9583 23.7007 51.9173 22.1917C51.8643 21.7507 51.8073 21.2917 51.7593 20.5547L51.7923 20.4077C51.7813 20.3077 51.7723 20.2007 51.7623 20.0767H51.1083C51.0533 20.6697 50.9473 21.4877 50.9683 21.6937C50.7943 22.2937 50.6943 24.4437 50.5683 25.4377L50.6243 25.4797C50.5513 26.1647 50.4993 26.8237 50.4243 27.6797L50.4843 27.6327C50.4433 28.3697 50.2233 29.5127 50.0633 30.6667C50.0726 30.4717 50.099 30.278 50.1423 30.0877C49.8343 31.4527 49.7923 33.0067 49.4473 34.2317C49.4121 34.484 49.358 34.7334 49.2853 34.9777C49.2923 34.9487 49.2963 34.9237 49.3003 34.9017C49.2933 34.9327 49.2813 34.9797 49.2693 35.0277L49.1443 35.4487C49.1873 35.3227 49.2243 35.2017 49.2543 35.0957C49.2013 35.3327 49.1233 35.6957 49.0463 36.0447L48.9513 36.1817C48.9433 36.2097 48.9373 36.2327 48.9303 36.2617C48.8173 36.5997 48.8813 36.5427 48.9723 36.3687C48.9323 36.5457 48.9033 36.7097 48.8783 36.8367C48.7103 37.0927 48.6353 37.7547 48.4043 38.0997C48.3795 38.2268 48.3461 38.3521 48.3043 38.4747C48.2433 38.6487 48.1713 38.8627 48.0923 39.0747C47.9603 39.4327 47.8173 39.7807 47.7803 39.9437C47.6903 40.1237 47.5903 40.2977 47.5013 40.4727C47.4123 40.6477 47.3153 40.8177 47.2383 40.9837L47.0833 41.1017C46.9603 41.3707 46.8213 41.6337 46.6783 41.8967C46.5685 42.0376 46.4471 42.169 46.3153 42.2897C46.2613 42.3237 46.3023 42.2557 46.4373 42.0227C46.2283 42.3491 45.9967 42.6605 45.7443 42.9547C45.5783 43.1347 45.4443 43.3037 45.0443 43.7147L45.0533 43.6487C44.7433 43.9584 44.4048 44.2383 44.0423 44.4847C43.8423 44.6047 43.4953 44.8177 43.0483 45.0737C42.5163 45.3675 41.9688 45.6326 41.4083 45.8677C40.7548 46.1407 40.0872 46.3787 39.4083 46.5807C38.7213 46.7857 38.0373 46.9497 37.4303 47.0747C37.6823 47.0797 37.3973 47.1317 37.0403 47.1947C36.7592 47.2217 36.4827 47.2842 36.2173 47.3807C36.0683 47.3807 35.7243 47.4307 36.1173 47.3287C34.8803 47.6007 34.2323 47.6287 33.3803 47.8437C33.2303 47.8377 33.6413 47.7597 33.5083 47.7627C33.3348 47.8055 33.1583 47.8352 32.9803 47.8517C32.8483 47.8517 33.1603 47.8017 33.3563 47.7567C32.0713 47.9567 31.9563 48.0567 31.8753 48.1517C31.3851 48.1765 30.8983 48.2472 30.4213 48.3627C30.1893 48.3627 29.8033 48.3827 30.6073 48.2737L29.0453 48.4487C28.6248 48.4791 28.207 48.5399 27.7953 48.6307C27.6503 48.6307 27.1603 48.6937 27.0413 48.7147C26.0213 48.8147 25.9313 48.8217 24.9303 48.9287L25.2093 48.9117C25.1407 48.9331 25.0709 48.9504 25.0003 48.9637L24.7923 48.9327V48.9957H24.7623L23.9043 49.0957L24.7623 49.1717H24.7923V49.2357L25.1703 49.2157C25.3893 49.2427 25.6393 49.2757 25.9463 49.3037L25.9233 49.3097C27.7653 49.5617 26.7233 49.3627 28.5413 49.6307L28.4493 49.5697C28.6353 49.4797 30.0553 49.8167 31.1163 49.9137L30.7393 49.8357C31.3233 49.8727 32.3263 50.1927 32.8973 50.2947C33.0223 50.3227 32.6973 50.2807 32.5203 50.2617C33.2673 50.4027 33.3203 50.3967 33.3203 50.3707C33.3203 50.3447 33.2863 50.3017 33.8483 50.3817C34.0483 50.4507 33.5653 50.4247 34.3153 50.5577C34.5003 50.6027 35.0503 50.6667 35.6783 50.7577C36.2951 50.8431 36.9054 50.9697 37.5053 51.1367C37.2923 51.0597 37.0783 50.9827 37.5953 51.0797C37.7953 51.1267 38.0173 51.1877 38.2603 51.2567C38.5033 51.3257 38.7603 51.4067 39.0063 51.4907L39.7363 51.7267C39.9663 51.7967 40.1763 51.8607 40.3543 51.8997C40.4453 51.9407 40.4793 51.9597 40.4803 51.9677C40.6263 52.0117 40.8113 52.0817 41.0183 52.1537C41.2253 52.2257 41.4433 52.3177 41.6583 52.4007C41.8733 52.4837 42.0763 52.5727 42.2473 52.6507C42.4183 52.7287 42.5603 52.7857 42.6473 52.8177C42.8551 52.9886 43.078 53.1402 43.3133 53.2707C43.6293 53.4617 43.9993 53.7007 44.3443 53.9437C45.0293 54.4337 45.5813 54.9667 45.5053 55.0167C45.9141 55.432 46.289 55.8794 46.6263 56.3547L46.5843 56.3267C46.8953 56.7837 47.0933 57.0997 47.2463 57.3407C47.3223 57.4617 47.3893 57.5627 47.4463 57.6537C47.5033 57.7447 47.5583 57.8277 47.6133 57.9107C47.7133 58.1427 47.6133 57.9827 47.5983 57.9677C47.6873 58.1477 47.7563 58.3107 47.8213 58.4577C47.8863 58.6047 47.9413 58.7347 47.9903 58.8577C48.0393 58.9807 48.0853 59.0867 48.1283 59.1897C48.1713 59.2927 48.2073 59.3897 48.2463 59.4837C48.4013 59.8597 48.5463 60.2057 48.7953 60.8327L48.7773 60.9797C48.8369 61.1486 48.888 61.3205 48.9303 61.4947C48.9923 61.7447 49.0713 62.0597 49.1463 62.4137C49.3053 63.1207 49.4773 63.9767 49.6513 64.7377C49.6239 64.6862 49.6043 64.6309 49.5933 64.5737C49.7884 65.4987 49.9349 66.4333 50.0323 67.3737C50.0752 68.0436 50.1912 68.7069 50.3783 69.3517L50.5663 70.4967C50.4103 69.0067 50.6843 70.7097 50.6483 70.0967C50.7313 70.6807 50.7543 71.6167 50.6653 70.8967V70.7827C50.5943 70.6557 50.6353 71.1187 50.6833 71.6097C50.7361 71.9379 50.7566 72.2705 50.7443 72.6027C50.9203 74.3027 51.0513 75.9867 51.1753 77.6337C51.156 77.7703 51.1376 77.907 51.1203 78.0437H51.1313C51.1613 77.8987 51.1723 78.0987 51.2033 78.0167V78.0797H51.6613V78.0437C51.6783 77.8787 51.6923 77.7147 51.7093 77.5497C51.7323 77.8437 51.7383 77.9877 51.7353 78.0437H51.7463C51.7383 77.8677 51.7293 77.6917 51.7133 77.5157C51.7926 76.6697 51.872 75.8347 51.9513 75.0107L51.8373 75.3207L51.9313 74.3627C51.9753 74.1127 52.0313 74.0297 51.9613 74.7137C52.0224 74.3265 52.0402 73.9338 52.0143 73.5427C52.1813 72.2067 52.0623 74.0737 52.1053 73.6627L52.1543 73.1047L52.1323 73.2297C52.1211 72.789 52.1428 72.3481 52.1973 71.9107C52.2693 71.3927 52.2793 71.6487 52.3033 71.4447C52.3033 71.4447 52.3103 71.4287 52.3173 71.3817C52.3243 71.3347 52.3303 71.2547 52.3413 71.1317L52.4863 69.9317L52.3623 70.4067C52.3903 69.8697 52.5023 69.2737 52.3563 69.8227C52.4673 69.4227 52.6123 68.2987 52.7733 67.2227C52.9343 66.1467 53.1103 65.1057 53.1733 64.8597C53.2781 64.0596 53.4338 63.267 53.6393 62.4867C53.5703 62.7067 53.4613 62.8267 53.6633 62.0547C53.7043 62.2117 53.8143 61.8617 53.9543 61.4007C54.0789 60.9657 54.2363 60.5408 54.4253 60.1297C54.3903 60.1877 54.4043 60.1197 54.4473 59.9827C54.4723 59.9007 54.5063 59.7957 54.5473 59.6827C54.5883 59.5697 54.6353 59.4417 54.6813 59.3187C54.8683 58.8277 55.0563 58.3787 54.8263 58.7777C55.1103 58.1697 54.8963 58.7587 55.1413 58.3107C55.4868 57.5109 55.9335 56.7588 56.4703 56.0727C57.0788 55.2974 57.782 54.6014 58.5633 54.0007C58.5773 53.9677 58.2823 54.1557 58.6133 53.8677C58.9283 53.6757 59.2503 53.4957 59.5823 53.3337C59.7027 53.2523 59.8188 53.1649 59.9303 53.0717C60.121 52.9365 60.3297 52.8288 60.5503 52.7517C60.4503 52.7857 60.2893 52.8377 60.5353 52.7077C62.4888 51.8394 64.5356 51.1982 66.6353 50.7967C68.7768 50.3603 70.9428 50.0541 73.1213 49.8797C72.5323 49.9167 72.9213 49.8637 73.3673 49.8097C73.0753 49.8357 73.3673 49.7637 73.3063 49.7457C73.9123 49.6967 74.5173 49.6517 75.1243 49.6087C75.4913 49.5334 75.8627 49.4813 76.2363 49.4527C76.585 49.4291 76.9315 49.3807 77.2733 49.3077C77.1613 49.3247 77.0473 49.3367 76.9583 49.3487L76.6833 49.3697ZM54.7833 39.5987C54.632 39.2567 54.4873 38.9007 54.3493 38.5307C54.4673 38.7817 54.6413 39.2037 54.7833 39.5987ZM54.2833 38.3387H54.2773C54.2623 38.2987 54.2483 38.2587 54.2343 38.2177L54.2833 38.3387ZM52.6483 29.3387L52.6423 29.3167C52.6073 28.8487 52.6183 29.0147 52.6493 29.3397L52.6483 29.3387ZM52.0703 25.3747C52.2023 26.4177 52.0523 25.8327 52.0863 26.0137C52.1341 26.6087 52.223 27.1998 52.3523 27.7827C52.4628 28.2831 52.5347 28.7912 52.5673 29.3027C52.5903 29.9537 52.4463 29.3447 52.4193 29.4927C52.2863 28.6457 52.2963 28.1837 52.2283 27.6077L52.2803 28.3207C52.2092 27.9413 52.1588 27.5584 52.1293 27.1737C52.1293 27.2407 52.1353 27.3407 52.1453 27.4687C52.004 26.202 51.867 24.8553 51.7343 23.4287C51.8323 23.8107 51.9543 24.5167 52.0713 25.3757L52.0703 25.3747ZM51.2893 21.2367C51.3043 21.2697 51.3333 21.1757 51.3523 21.1017C51.3276 21.3883 51.3033 21.672 51.2793 21.9527C51.2763 21.7237 51.2793 21.4617 51.2903 21.2377L51.2893 21.2367ZM50.9643 25.0147C50.9709 24.977 50.9841 24.9408 51.0033 24.9077C50.9693 25.2567 50.9343 25.5997 50.9033 25.9377L50.8093 25.9507L50.8883 26.0817C50.8523 26.423 50.8163 26.7587 50.7803 27.0887C50.7103 27.0887 50.6553 27.0197 50.6423 26.8887C50.6573 26.7877 50.8883 25.3487 50.9643 25.0147ZM50.0233 31.8087L50.1233 30.8787C50.1293 31.1287 50.1293 31.5717 50.1133 32.0657C50.0266 32.599 49.9363 33.1113 49.8423 33.6027C49.8543 33.1467 49.8823 32.6027 49.9483 32.0347L50.0233 31.8087ZM47.7773 39.9397C47.7722 39.9613 47.7692 39.9834 47.7683 40.0057C47.7523 40.0127 47.7043 40.1027 47.7783 39.9407L47.7773 39.9397ZM46.6283 41.9737C46.6113 42.0387 46.6633 42.0307 46.7283 42.0167C46.5756 42.228 46.4176 42.4327 46.2543 42.6307C46.3843 42.4147 46.5123 42.1957 46.6293 41.9747L46.6283 41.9737ZM31.6033 48.2217C31.7603 48.2107 31.6353 48.2527 31.4283 48.3077C31.5153 48.2907 31.5973 48.2737 31.6613 48.2597C31.8503 48.2437 31.9233 48.2467 31.9233 48.2597L31.2783 48.3467L31.4273 48.3077L31.1043 48.3697L30.8383 48.4037C30.6263 48.4117 30.4453 48.4157 30.3163 48.4227C30.7483 48.3607 31.1773 48.2907 31.6043 48.2237L31.6033 48.2217ZM52.2673 71.5217C52.2973 71.0927 52.3003 71.2137 52.3033 71.3337L52.2673 71.5217Z" fill="#1D1D1B"/>
<path d="M53.7275 35.3257L53.7415 35.3857C53.7355 35.3597 53.7305 35.3407 53.7275 35.3257Z" fill="#1D1D1B"/>
<path d="M53.6886 35.3105C53.6956 35.2975 53.6886 35.2105 53.7136 35.3005L53.5986 34.7905C53.6596 35.0675 53.6696 35.1695 53.6886 35.3105Z" fill="#1D1D1B"/>
<path d="M53.7158 36.0024C53.7405 36.2775 53.7999 36.5483 53.8928 36.8084L53.8728 36.7384C53.9578 36.8414 53.8338 36.4254 53.7158 36.0024Z" fill="#1D1D1B"/>
<path d="M53.9502 36.9507C53.9842 37.0727 54.0182 37.1967 54.0502 37.3177C54.0822 37.3577 54.0132 37.1677 53.9502 36.9507Z" fill="#1D1D1B"/>
<path d="M53.0062 31.7427C53.0862 31.9517 52.7702 30.4637 52.9412 31.5167C52.9562 31.7127 53.0072 31.6317 53.0062 31.7427Z" fill="#1D1D1B"/>
<path d="M53.6307 36.3485L53.6437 36.1935C53.6117 36.1215 53.5827 36.0495 53.5527 35.9775C53.5767 36.1015 53.6037 36.2245 53.6307 36.3485Z" fill="#1D1D1B"/>
<path d="M52.9492 32.9707C52.9782 33.1887 53.0092 33.4057 53.0432 33.6227C53.0681 33.6767 53.0837 33.7345 53.0892 33.7937C53.0192 33.3947 52.9602 32.9537 52.9492 32.9707Z" fill="#1D1D1B"/>
<path d="M53.2162 34.3637C53.1942 34.2517 53.1462 34.0107 53.1162 33.8437C53.1472 34.0517 53.1862 34.2497 53.2162 34.3637Z" fill="#1D1D1B"/>
<path d="M51.8914 24.8277C51.9184 24.9977 51.9484 25.2637 51.9544 25.1517L51.8764 24.4367C51.8504 24.3657 51.8564 24.5617 51.8914 24.8277Z" fill="#1D1D1B"/>
<path d="M76.6416 49.5176L77.1876 49.4746L76.8326 49.4826L76.6416 49.5176Z" fill="#1D1D1B"/>
<path d="M77.7793 49.2517C77.8496 49.2508 77.9198 49.2447 77.9893 49.2337C78.0852 49.1764 78.1855 49.1269 78.2893 49.0857C78.2293 49.1047 78.1403 49.1367 78.0443 49.1717C77.9581 49.205 77.8695 49.2318 77.7793 49.2517Z" fill="#1D1D1B"/>
</g>
<defs>
<clipPath id="clip0_5_3297">
<rect width="54.5" height="58" fill="white" transform="translate(23.8984 20.0767)"/>
</clipPath>
</defs>
</svg>
